<?xml version="1.0" standalone="no"?>
<!DOCTYPE svg PUBLIC "-//W3C//DTD SVG 20010904//EN"
 "http://www.w3.org/TR/2001/REC-SVG-20010904/DTD/svg10.dtd">
<svg version="1.0" xmlns="http://www.w3.org/2000/svg"
 width="225.000000pt" height="225.000000pt" viewBox="0 0 225.000000 225.000000"
 preserveAspectRatio="xMidYMid meet">

<g transform="translate(0.000000,225.000000) scale(0.100000,-0.100000)"
fill="#000000" stroke="none">
<path d="M895 2115 c-14 -13 -25 -32 -25 -42 0 -10 -14 -150 -30 -312 -17
-162 -30 -309 -30 -327 0 -33 -30 -75 -69 -98 -10 -6 -36 -24 -57 -41 l-39
-30 5 -63 c3 -36 0 -76 -7 -95 -6 -17 -12 -24 -12 -14 -1 9 -7 17 -13 17 -7 1
-2 10 11 20 22 19 23 20 2 20 -12 0 -19 5 -16 13 2 6 -9 22 -26 35 -22 18 -36
22 -59 17 -26 -6 -28 -8 -15 -21 8 -9 23 -13 33 -10 22 7 52 -22 48 -46 -4
-30 -38 -59 -65 -56 -35 4 -32 22 5 29 28 6 28 6 7 15 -12 5 -22 12 -22 17 -1
4 -1 13 -1 20 0 6 -6 3 -12 -8 -16 -27 -20 -87 -7 -95 5 -4 -3 -7 -20 -8 -34
-1 -51 16 -30 29 10 6 8 8 -8 6 -12 0 -20 -4 -18 -8 3 -3 -10 -6 -27 -7 -17 0
-36 -6 -41 -11 -6 -6 -21 -11 -34 -11 -16 0 -21 -4 -17 -15 8 -20 63 -20 70 0
4 10 14 13 32 8 19 -4 23 -3 17 7 -5 8 -3 11 5 8 25 -8 22 -27 -7 -42 l-28
-15 32 -1 c21 0 32 5 30 12 -1 7 9 14 23 16 25 4 25 3 5 -13 -11 -9 -14 -14
-7 -10 29 15 8 -14 -30 -42 -40 -28 -45 -29 -76 -16 -19 8 -32 9 -32 3 0 -14
-53 -13 -68 2 -16 16 -50 17 -56 3 -5 -13 106 -31 123 -20 5 3 19 1 32 -3 20
-8 13 -16 -80 -82 -97 -69 -103 -75 -97 -102 3 -18 2 -27 -4 -23 -16 10 -12 0
10 -25 13 -15 17 -27 11 -33 -5 -5 -8 -15 -5 -21 2 -6 7 -45 12 -86 l7 -75
235 -78 c249 -82 722 -234 854 -273 76 -23 153 -30 189 -16 26 11 107 114 107
137 0 15 2 17 9 6 5 -7 6 -22 3 -34 -6 -23 22 -49 44 -40 18 7 18 33 0 33 -8
0 -18 5 -22 11 -4 8 1 9 17 5 24 -7 24 -7 -1 8 l-25 15 30 2 30 1 -32 9 c-45
13 -42 21 5 14 l37 -5 -35 14 -35 14 42 1 c23 1 44 5 48 10 3 6 -9 8 -29 4
-21 -3 -46 0 -64 10 -28 14 -30 13 -29 -3 1 -10 5 -16 9 -14 4 3 8 -1 8 -9 0
-10 -8 -13 -26 -9 -20 4 -26 0 -31 -18 -9 -32 -23 -4 -23 46 0 33 8 49 43 90
23 28 60 73 82 102 21 29 42 52 45 52 4 0 17 20 30 45 13 25 27 45 31 45 11 0
179 201 179 214 0 6 -4 17 -9 25 -6 9 1 22 23 42 29 25 34 38 45 111 7 46 15
94 18 107 4 17 2 22 -6 17 -6 -4 -16 -27 -22 -52 -6 -25 -14 -43 -16 -40 -2 2
1 23 7 46 11 42 43 84 55 72 3 -4 3 1 0 11 -11 26 15 157 30 157 14 0 20 25
67 332 l32 208 -20 27 c-12 16 -30 28 -41 29 -11 1 -25 4 -31 8 -23 14 -188
36 -237 31 -35 -3 -41 -2 -20 3 29 8 28 8 -19 15 -26 4 -67 5 -90 2 -33 -4
-36 -3 -16 5 19 7 10 8 -35 5 -44 -3 -53 -2 -35 5 18 6 7 8 -40 5 -42 -3 -54
-1 -35 3 29 8 28 8 -19 15 -26 4 -67 5 -90 2 -34 -4 -37 -3 -16 5 19 7 11 8
-35 5 -45 -3 -54 -2 -35 5 19 7 12 9 -30 5 -41 -3 -50 -2 -35 6 15 7 6 8 -35
5 -39 -3 -49 -2 -35 5 15 7 7 8 -29 5 -27 -2 -43 -1 -37 3 12 8 -148 31 -209
31 -19 0 -40 -9 -55 -25z m618 -62 c-7 -2 -21 -2 -30 0 -10 3 -4 5 12 5 17 0
24 -2 18 -5z m270 -40 c-7 -2 -19 -2 -25 0 -7 3 -2 5 12 5 14 0 19 -2 13 -5z
m-386 -269 c-3 -3 -12 -4 -19 -1 -8 3 -5 6 6 6 11 1 17 -2 13 -5z m56 -11 c-7
-2 -19 -2 -25 0 -7 3 -2 5 12 5 14 0 19 -2 13 -5z m151 -22 c56 -11 106 -27
115 -36 15 -15 15 -16 -1 -10 -10 4 -22 -2 -34 -18 -18 -23 -20 -23 -79 -11
-33 6 -116 22 -185 35 -68 12 -119 24 -113 26 10 4 203 -27 271 -42 17 -4 21
-2 16 6 -4 7 -3 9 3 6 10 -6 40 20 32 27 -2 2 -38 10 -79 18 -41 9 -68 16 -60
17 8 0 59 -8 114 -18z m-771 -292 c-5 -5 -9 3 -11 19 -1 24 0 25 9 9 7 -11 7
-23 2 -28z m82 -109 c-3 -5 7 -8 24 -5 23 3 28 0 24 -11 -3 -9 -12 -13 -20
-10 -8 3 -12 2 -9 -3 3 -4 -8 -20 -24 -36 -25 -24 -34 -27 -67 -20 -62 11 -74
21 -61 50 6 14 15 25 20 25 5 0 6 -5 2 -11 -4 -7 1 -9 12 -7 11 2 18 10 17 16
-4 17 5 15 29 -8 17 -16 24 -17 36 -7 13 10 11 13 -14 16 l-29 4 30 7 c17 4
31 8 33 9 2 0 1 -3 -3 -9z m211 -23 c12 -7 20 -20 19 -29 -2 -10 4 -23 13 -28
13 -8 9 -9 -16 -5 -22 4 -31 2 -27 -5 3 -5 -1 -10 -10 -10 -13 0 -14 -4 -5
-20 7 -14 7 -20 0 -20 -5 0 -10 3 -10 8 0 4 -16 7 -35 7 -19 0 -35 5 -35 10 0
6 5 11 10 11 6 1 13 2 18 3 12 2 12 65 -1 73 -8 5 -7 8 6 8 11 0 17 -8 17 -22
0 -17 3 -19 12 -10 7 7 21 12 33 12 18 1 19 1 2 11 -9 5 -22 7 -29 3 -7 -4 -8
-3 -4 4 9 15 15 15 42 -1z m-112 -29 c11 18 36 15 29 -4 -9 -25 -52 -68 -60
-60 -10 10 -11 46 -1 46 4 0 8 10 9 23 0 20 1 20 8 3 5 -14 10 -16 15 -8z
m179 -3 c-7 -19 -19 -19 -26 -1 -3 8 -1 17 6 19 18 6 27 -2 20 -18z m227 -57
c0 -16 -23 -19 -38 -4 -15 15 -14 16 11 14 15 -1 27 -6 27 -10z m-55 -10 c26
-12 32 -23 16 -32 -14 -9 -42 5 -35 16 4 6 0 14 -7 19 -20 13 -4 11 26 -3z
m-31 -19 c-3 -6 2 -17 12 -25 18 -15 18 -15 1 -10 -11 3 -29 9 -41 12 -32 8
-28 31 6 32 16 0 26 -3 22 -9z m286 0 c0 -3 11 -4 25 -1 28 5 30 0 15 -29 -7
-12 -20 -18 -35 -17 -13 1 -22 4 -20 7 3 2 0 10 -6 18 -6 7 -8 13 -3 13 5 0 2
5 -6 10 -12 7 -10 9 8 7 12 0 22 -4 22 -8z m-352 -21 c-6 -18 -43 -22 -55 -6
-9 10 -4 14 24 16 24 1 33 -2 31 -10z m32 -12 c0 -3 -4 -8 -10 -11 -5 -3 -10
-1 -10 4 0 6 5 11 10 11 6 0 10 -2 10 -4z m308 -43 c-2 -5 -7 -6 -13 -5 -27
10 -45 10 -50 1 -4 -5 -11 -6 -17 -3 -7 4 -8 2 -4 -4 4 -7 18 -12 32 -12 13 0
24 -4 24 -8 0 -5 -22 -4 -50 2 -37 7 -47 13 -39 22 8 9 5 11 -13 6 -21 -5 -22
-4 -9 11 14 18 57 24 46 7 -3 -5 1 -10 10 -10 9 0 13 5 10 10 -8 13 8 13 22
-1 8 -8 13 -7 18 2 5 8 4 10 -3 5 -12 -7 -17 6 -6 17 7 7 45 -30 42 -40z
m-422 19 c-10 -2 -22 0 -28 6 -6 6 0 7 19 4 21 -5 23 -7 9 -10z m731 2 c-3 -3
-12 -4 -19 -1 -8 3 -5 6 6 6 11 1 17 -2 13 -5z m-47 -20 c0 -11 -6 -14 -22 -9
-20 5 -21 4 -6 -5 13 -8 24 -8 39 0 18 10 20 9 17 -7 -2 -11 -12 -18 -25 -18
-12 0 -25 -3 -29 -7 -4 -5 0 -8 10 -8 9 0 15 -4 12 -8 -3 -5 -19 -7 -35 -6
-17 1 -34 -2 -37 -7 -6 -11 -47 -12 -41 -1 3 4 1 18 -4 31 l-9 24 -25 -23
c-33 -31 -41 -21 -11 13 19 22 32 27 70 27 25 0 46 5 46 10 0 6 11 10 25 10
16 0 25 -6 25 -16z m-1260 1 c0 -13 -47 -45 -64 -44 -17 1 -18 2 -3 6 9 2 17
9 17 14 0 5 10 14 23 19 28 11 27 11 27 5z m673 -2 c-7 -2 -21 -2 -30 0 -10 3
-4 5 12 5 17 0 24 -2 18 -5z m-388 -46 c33 -8 72 -18 88 -21 23 -6 27 -11 27
-43 l0 -36 88 6 c100 7 76 -8 -30 -18 -61 -6 -82 -16 -60 -28 4 -2 1 -2 -6 -1
-7 2 -71 18 -142 35 -72 18 -130 37 -130 42 0 20 74 87 90 83 8 -3 42 -11 75
-19z m604 -3 c2 -2 -7 -4 -22 -4 -14 0 -29 5 -32 10 -6 10 42 4 54 -6z m441
-54 c-4 -29 -15 -59 -27 -72 -19 -21 -57 -94 -74 -143 -7 -19 -7 -19 -8 2 -1
13 8 45 18 73 11 27 15 47 10 44 -5 -3 -9 12 -9 33 0 30 9 48 41 86 48 55 58
50 49 -23z m-1575 50 c3 -6 -4 -10 -17 -10 -18 0 -20 2 -8 10 19 12 18 12 25
0z m1214 -16 c10 -9 -35 -3 -49 6 -11 8 -7 9 15 4 17 -4 32 -8 34 -10z m387
-29 c-4 -42 -16 -60 -16 -22 0 24 9 57 15 57 2 0 2 -16 1 -35z m-129 3 c-3 -8
-6 -5 -6 6 -1 11 2 17 5 13 3 -3 4 -12 1 -19z m-54 -25 c-7 -2 -19 -2 -25 0
-7 3 -2 5 12 5 14 0 19 -2 13 -5z m-1046 -35 c-3 -8 -6 -5 -6 6 -1 11 2 17 5
13 3 -3 4 -12 1 -19z m109 -12 c10 -8 16 -17 13 -20 -9 -9 -59 11 -59 24 0 14
23 12 46 -4z m399 4 c3 -5 -2 -10 -12 -10 -31 -1 -166 -20 -187 -26 -18 -6
-18 -5 -5 8 9 10 49 20 100 25 46 6 87 11 91 12 4 0 10 -3 13 -9z m-664 -23
c-10 -9 -11 -8 -5 6 3 10 9 15 12 12 3 -3 0 -11 -7 -18z m55 14 c-7 -11 38
-19 91 -16 24 2 40 -1 37 -6 -3 -5 3 -9 14 -9 32 0 82 -21 82 -35 0 -20 -27
-39 -35 -24 -4 6 -1 15 6 20 12 7 11 9 -1 8 -8 0 -35 -20 -59 -43 -39 -38 -46
-42 -59 -30 -11 11 -17 12 -28 3 -7 -6 -13 -14 -12 -17 2 -19 -3 -32 -14 -32
-6 0 -20 -8 -31 -17 -19 -18 -20 -17 -7 6 11 21 10 23 -4 18 -10 -4 -14 -3
-11 2 3 5 1 12 -4 15 -5 3 -11 0 -14 -8 -8 -21 21 -56 46 -56 19 0 15 -6 -23
-40 -39 -35 -49 -39 -80 -34 -19 3 -51 13 -70 21 -19 9 -44 18 -55 20 -11 2
-24 9 -30 15 -7 8 -5 9 8 5 10 -4 16 -3 13 2 -3 5 49 61 116 125 114 109 137
129 124 107z m674 -20 c0 -9 -108 -21 -175 -20 -52 1 -34 8 46 18 89 12 129
12 129 2z m-330 -17 c0 -9 -7 -14 -17 -12 -25 5 -28 28 -4 28 12 0 21 -6 21
-16z m135 -26 c31 -14 32 -28 2 -28 -23 0 -47 17 -47 32 0 11 15 10 45 -4z
m221 3 c5 -5 70 -23 144 -40 74 -18 179 -43 233 -58 96 -26 97 -27 79 -46 -19
-18 -21 -18 -118 8 -54 14 -106 29 -114 32 -19 8 -27 10 -41 12 -8 1 -7 7 2
18 13 15 12 15 -8 5 -36 -20 -63 -15 -64 11 -1 15 -3 17 -6 6 -4 -16 -23 -17
-63 -2 -8 4 -17 6 -20 5 -3 0 -46 10 -95 23 -79 20 -86 24 -55 27 66 9 116 8
126 -1z m-448 -13 c-2 -7 5 -12 14 -12 10 1 16 -2 13 -6 -6 -10 63 -35 72 -27
3 3 -10 10 -28 16 -25 7 -28 9 -12 10 32 1 75 -20 69 -35 -8 -22 13 -26 25 -5
12 18 16 18 57 6 25 -8 50 -13 56 -12 6 1 11 -8 10 -20 -1 -21 8 -27 43 -26 6
0 9 -6 6 -13 -3 -8 0 -14 7 -14 6 0 8 -6 4 -12 -5 -10 -4 -10 6 -1 10 9 18 8
36 -4 13 -8 24 -12 24 -8 0 5 9 0 19 -9 14 -13 21 -14 27 -5 4 8 3 10 -4 5
-15 -9 -15 7 0 22 9 9 8 12 -3 16 -8 2 -45 14 -84 27 -55 17 -65 24 -50 30 28
11 47 11 41 0 -3 -5 8 -14 26 -20 22 -8 34 -8 38 -1 4 6 14 8 24 4 14 -5 15
-9 4 -16 -9 -7 -6 -8 10 -5 19 5 22 2 16 -11 -11 -25 -8 -62 6 -76 10 -8 11
-8 6 1 -4 7 2 17 15 23 30 17 32 8 4 -25 -21 -26 -26 -28 -36 -15 -8 12 -10
10 -5 -10 6 -29 -33 -80 -60 -80 -11 0 -13 -6 -9 -22 6 -16 4 -20 -8 -15 -22
8 -71 -45 -55 -61 9 -9 8 -12 -7 -12 -33 0 -65 12 -59 21 3 5 10 7 15 4 5 -4
5 3 1 17 -11 28 -66 58 -107 57 -27 0 -28 -1 -9 -9 12 -4 24 -18 27 -30 5 -20
3 -22 -25 -16 -17 3 -45 13 -61 21 -17 8 -38 15 -49 15 -10 0 -18 2 -18 4 0 2
18 23 41 47 85 91 150 178 147 196 -4 21 -17 33 -38 32 -10 0 -8 -3 5 -9 19
-9 19 -9 -2 -16 -13 -3 -21 -10 -18 -14 6 -9 -13 -25 -30 -25 -5 0 -10 -7 -10
-16 0 -9 -34 -52 -76 -97 l-76 -80 -69 19 c-38 10 -73 19 -79 19 -5 0 1 9 15
20 25 20 66 28 55 11 -3 -5 0 -13 6 -17 8 -5 9 -3 4 5 -5 9 0 12 16 9 13 -2
23 -9 21 -16 -1 -8 2 -11 9 -7 22 14 -24 44 -74 48 -43 4 -48 2 -53 -20 -6
-21 -10 -23 -38 -17 -17 3 -34 9 -39 13 -5 5 239 261 251 261 1 0 1 -6 0 -12z
m62 8 c0 -11 -19 -15 -25 -6 -3 5 1 10 9 10 9 0 16 -2 16 -4z m262 -38 c-13
-13 -52 0 -52 17 0 11 6 12 31 3 20 -7 27 -14 21 -20z m-178 13 c4 -5 -1 -8
-9 -7 -21 3 -31 16 -12 16 9 0 18 -4 21 -9z m536 -95 c0 -11 -19 -15 -25 -6
-3 5 1 10 9 10 9 0 16 -2 16 -4z m-132 -37 c26 -10 28 -22 5 -40 -15 -12 -16
-12 -10 3 5 14 -2 20 -33 29 -22 7 -40 16 -40 21 0 8 35 3 78 -13z m292 -10
c0 -12 -22 -11 -54 1 -42 15 -31 29 14 18 22 -6 40 -14 40 -19z m-200 -29 c6
0 10 7 10 15 0 8 7 15 15 15 8 0 15 -9 15 -21 0 -11 4 -18 9 -14 5 3 12 1 16
-5 4 -6 -6 -10 -22 -11 -28 -1 -27 -1 7 -14 19 -7 50 -14 68 -14 35 -1 37 -5
18 -40 -10 -17 -23 -24 -50 -26 -20 -1 -42 -7 -48 -13 -14 -14 -3 -42 17 -42
9 0 14 4 11 9 -5 7 15 21 30 21 3 0 -19 -30 -49 -67 l-54 -68 -71 0 c-65 0
-72 2 -77 23 -3 12 -10 22 -16 22 -6 0 -7 -5 -4 -10 4 -6 4 -18 1 -27 -6 -14
-8 -14 -22 3 -9 10 -13 13 -9 7 7 -16 -21 -18 -30 -3 -5 9 53 86 113 148 6 8
17 22 23 33 5 11 14 17 18 14 5 -2 8 3 7 13 0 9 4 16 10 15 7 -1 11 5 10 15 0
9 5 16 12 14 8 -1 11 2 7 8 -3 5 -3 15 1 21 5 8 10 6 16 -5 5 -9 13 -16 18
-16z m145 -10 c3 -5 -1 -10 -9 -10 -9 0 -16 5 -16 10 0 6 4 10 9 10 6 0 13 -4
16 -10z m-1070 -59 c505 -148 791 -236 800 -244 13 -12 40 -20 -400 112 -401
120 -556 169 -540 170 6 0 69 -17 140 -38z m645 -116 c-7 -8 -16 -15 -21 -15
-5 0 -1 9 8 20 9 11 19 17 21 15 3 -3 -1 -11 -8 -20z m-460 -10 c-14 -17 -4
-37 17 -33 27 5 26 -21 0 -33 -32 -14 -73 -5 -82 18 -4 13 2 25 22 40 33 27
63 32 43 8z m780 -220 c0 -2 -6 -8 -13 -14 -10 -8 -14 -7 -14 2 0 8 6 14 14
14 7 0 13 -1 13 -2z"/>
<path d="M1620 1662 c0 -5 7 -9 15 -9 8 0 12 4 9 9 -3 4 -9 8 -15 8 -5 0 -9
-4 -9 -8z"/>
<path d="M878 973 c7 -3 16 -2 19 1 4 3 -2 6 -13 5 -11 0 -14 -3 -6 -6z"/>
<path d="M530 766 c0 -2 7 -7 16 -10 8 -3 12 -2 9 4 -6 10 -25 14 -25 6z"/>
<path d="M506 708 c3 -4 0 -8 -6 -8 -6 0 -8 -4 -5 -10 4 -6 13 -5 25 3 25 15
25 23 1 23 -11 0 -17 -4 -15 -8z"/>
<path d="M515 679 c-4 -6 -5 -13 -2 -16 8 -7 47 7 47 18 0 13 -37 11 -45 -2z"/>
<path d="M1400 819 c0 -5 5 -7 10 -4 6 3 10 8 10 11 0 2 -4 4 -10 4 -5 0 -10
-5 -10 -11z"/>
<path d="M1470 799 c0 -5 5 -7 10 -4 6 3 10 8 10 11 0 2 -4 4 -10 4 -5 0 -10
-5 -10 -11z"/>
<path d="M864 781 c4 -5 1 -12 -4 -14 -6 -3 -5 -4 2 -3 15 3 23 26 8 26 -6 0
-9 -4 -6 -9z"/>
<path d="M905 740 c-21 -23 -15 -36 12 -25 10 5 23 9 28 9 6 1 10 8 10 16 0
23 -29 23 -50 0z"/>
<path d="M754 698 l-19 -23 23 19 c21 18 27 26 19 26 -2 0 -12 -10 -23 -22z"/>
<path d="M1113 697 c0 -16 6 -23 21 -25 16 -1 18 1 6 8 -12 8 -10 10 10 10
l25 1 -25 14 c-34 19 -37 19 -37 -8z"/>
<path d="M1186 695 c-3 -9 0 -15 9 -15 8 0 15 7 15 15 0 8 -4 15 -9 15 -5 0
-11 -7 -15 -15z"/>
<path d="M1074 669 c-19 -22 -19 -22 4 -10 12 6 22 16 22 21 0 15 -5 12 -26
-11z"/>
<path d="M1110 649 c0 -5 5 -7 10 -4 6 3 10 8 10 11 0 2 -4 4 -10 4 -5 0 -10
-5 -10 -11z"/>
<path d="M1028 608 c-15 -15 -22 -28 -17 -28 6 0 7 -5 3 -12 -4 -7 -3 -8 5 -4
6 4 9 11 6 15 -6 10 31 44 51 47 26 4 27 12 2 11 -13 -1 -35 -14 -50 -29z"/>
<path d="M1169 594 c-10 -13 -10 -17 2 -25 8 -5 21 -9 29 -9 12 1 11 4 -3 14
-14 11 -15 16 -6 22 7 4 15 2 17 -4 2 -7 9 -9 15 -5 7 4 8 0 3 -12 -5 -15 -4
-16 8 -5 13 10 13 14 1 26 -18 19 -49 18 -66 -2z"/>
<path d="M951 526 c19 -17 47 -23 60 -14 11 8 11 9 -3 4 -10 -3 -18 -1 -18 4
0 6 -10 10 -22 10 -12 0 -19 -2 -17 -4z"/>
<path d="M1458 571 l-23 -26 28 24 c21 19 27 21 27 9 0 -9 -6 -18 -12 -21 -7
-3 -3 -4 10 -4 12 1 22 7 22 15 0 7 5 10 11 6 7 -4 10 -1 7 6 -7 23 -47 18
-70 -9z"/>
<path d="M1413 517 c-34 -37 -39 -51 -14 -38 20 11 46 49 39 57 -3 2 -14 -6
-25 -19z"/>
<path d="M336 1898 c3 -4 12 -8 20 -8 8 0 14 4 14 8 0 4 -9 8 -19 8 -11 0 -17
-4 -15 -8z"/>
<path d="M567 1479 c7 -7 15 -10 18 -7 3 3 -2 9 -12 12 -14 6 -15 5 -6 -5z"/>
<path d="M484 1375 c-8 -13 -13 -29 -9 -35 12 -19 23 -10 20 15 -1 15 4 29 14
35 9 5 11 10 4 10 -7 0 -20 -11 -29 -25z"/>
<path d="M620 1307 c0 -1 -4 -16 -9 -34 -7 -26 -7 -31 5 -26 13 5 21 63 9 63
-3 0 -5 -1 -5 -3z"/>
<path d="M474 1254 c-18 -15 -18 -15 2 -5 12 6 24 7 28 4 3 -3 6 -1 6 5 0 16
-12 15 -36 -4z"/>
<path d="M409 1209 c-23 -19 -23 -20 -2 -10 12 6 25 16 28 21 10 16 -1 12 -26
-11z"/>
<path d="M190 1141 c0 -12 39 -21 45 -11 3 4 -2 11 -11 14 -22 8 -34 7 -34 -3z"/>
<path d="M417 1138 c6 -7 13 -20 16 -28 3 -9 6 -3 6 13 1 19 -4 27 -15 27 -12
0 -14 -4 -7 -12z"/>
<path d="M349 1117 c14 -15 29 -27 35 -27 6 0 3 7 -6 14 -10 7 -14 17 -10 22
4 5 3 6 -2 2 -5 -4 -16 -2 -25 4 -9 7 -5 0 8 -15z"/>
<path d="M101 1104 c0 -11 3 -14 6 -6 3 7 2 16 -1 19 -3 4 -6 -2 -5 -13z"/>
<path d="M330 1096 c0 -2 7 -7 16 -10 8 -3 12 -2 9 4 -6 10 -25 14 -25 6z"/>
<path d="M184 1069 c-3 -6 -2 -15 4 -21 7 -7 14 -3 21 11 10 17 9 21 -3 21 -8
0 -18 -5 -22 -11z"/>
<path d="M260 1042 c0 -5 7 -13 16 -16 10 -4 14 -1 12 6 -5 15 -28 23 -28 10z"/>
<path d="M230 1030 c0 -5 5 -10 11 -10 5 0 7 5 4 10 -3 6 -8 10 -11 10 -2 0
-4 -4 -4 -10z"/>
<path d="M1921 673 c-1 -8 -8 -10 -18 -6 -15 6 -16 5 -3 -9 16 -18 35 -8 27
14 -4 9 -6 9 -6 1z"/>
<path d="M1947 620 c3 -15 0 -31 -6 -34 -7 -5 -7 -15 -1 -32 6 -14 7 -30 4
-36 -4 -7 -2 -8 4 -4 15 9 16 -18 3 -43 -7 -12 -5 -27 5 -47 9 -16 14 -43 12
-61 -2 -17 -1 -31 2 -30 3 1 19 -7 37 -16 19 -10 51 -16 80 -15 l48 1 -45 4
c-25 3 -49 9 -55 14 -7 7 2 8 27 4 58 -11 131 19 98 40 -6 4 -9 1 -8 -6 5 -20
-60 -32 -112 -19 -43 10 -47 14 -45 39 3 38 12 51 38 52 20 1 20 2 -3 9 -22 7
-21 8 15 11 l40 2 -50 7 -50 7 45 3 45 3 -45 7 -45 7 47 1 c31 1 52 -3 62 -14
9 -8 16 -11 16 -5 0 16 -35 31 -77 32 l-38 2 35 7 35 7 -37 2 c-28 1 -36 5
-32 15 3 8 -2 16 -13 19 -10 3 11 5 47 5 49 0 59 -2 40 -9 l-25 -8 25 2 c14 1
26 9 28 17 2 12 -9 15 -60 14 l-63 -2 55 7 55 8 -45 2 c-25 1 -52 6 -60 12
-12 9 -11 10 8 6 33 -8 26 6 -13 24 l-34 16 6 -27z"/>
<path d="M2090 620 c-13 -8 -12 -10 3 -10 9 0 17 5 17 10 0 12 -1 12 -20 0z"/>
<path d="M2085 530 c-13 -6 -15 -9 -5 -9 8 0 22 4 30 9 18 12 2 12 -25 0z"/>
<path d="M1735 510 c3 -5 2 -10 -4 -10 -6 0 -8 -7 -5 -15 9 -23 22 -18 22 10
0 14 -5 25 -10 25 -5 0 -6 -4 -3 -10z"/>
<path d="M1788 513 c7 -3 16 -2 19 1 4 3 -2 6 -13 5 -11 0 -14 -3 -6 -6z"/>
<path d="M1695 459 c-4 -6 -4 -13 -1 -16 3 -4 6 -1 6 5 0 9 5 9 20 0 11 -7 18
-18 16 -23 -2 -6 5 -11 15 -11 16 0 15 4 -8 28 -29 30 -38 34 -48 17z"/>
<path d="M1670 430 c0 -6 5 -10 11 -10 5 0 7 -4 4 -10 -3 -5 -3 -10 0 -10 7 0
39 29 33 31 -32 7 -48 7 -48 -1z"/>
<path d="M2078 433 c6 -2 18 -2 25 0 6 3 1 5 -13 5 -14 0 -19 -2 -12 -5z"/>
<path d="M1648 403 c7 -3 16 -2 19 1 4 3 -2 6 -13 5 -11 0 -14 -3 -6 -6z"/>
<path d="M2015 359 c19 -7 132 -13 124 -5 -2 2 -35 6 -74 8 -40 3 -61 2 -50
-3z"/>
<path d="M2152 304 c-8 -8 -33 -14 -61 -14 -34 0 -51 -5 -55 -15 -4 -10 1 -15
15 -15 11 0 17 5 14 10 -4 6 9 10 32 10 36 0 84 22 73 33 -3 3 -11 -1 -18 -9z"/>
<path d="M2140 270 c-9 -6 -10 -10 -3 -10 6 0 15 5 18 10 8 12 4 12 -15 0z"/>
<path d="M1856 255 c6 -15 83 -31 106 -22 7 3 -3 6 -23 6 -19 1 -44 8 -55 16
-25 19 -35 19 -28 0z"/>
<path d="M1852 210 c3 -12 20 -15 78 -16 72 -1 73 -1 20 6 l-55 7 45 2 c80 3
71 16 -11 16 -65 0 -79 -3 -77 -15z"/>
</g>
</svg>
